<mxfile host="Electron" agent="Mozilla/5.0 (Windows NT 10.0; Win64; x64) AppleWebKit/537.36 (KHTML, like Gecko) draw.io/28.1.2 Chrome/138.0.7204.243 Electron/37.4.0 Safari/537.36" version="28.1.2">
  <diagram name="Page-1" id="KPOHLmaRZKNUcwCkTZW1">
    <mxGraphModel dx="1042" dy="626" grid="1" gridSize="10" guides="1" tooltips="1" connect="1" arrows="1" fold="1" page="1" pageScale="1" pageWidth="850" pageHeight="1100" math="0" shadow="0">
      <root>
        <mxCell id="0" />
        <mxCell id="1" parent="0" />
        <mxCell id="v-N-G4oX44tgqsiODnRz-2" value="&lt;b&gt;&lt;font style=&quot;font-size: 14px;&quot;&gt;Data Sources&lt;/font&gt;&lt;/b&gt;" style="text;html=1;align=center;verticalAlign=middle;whiteSpace=wrap;rounded=0;" vertex="1" parent="1">
          <mxGeometry x="60" y="130" width="110" height="30" as="geometry" />
        </mxCell>
        <mxCell id="v-N-G4oX44tgqsiODnRz-10" value="" style="group" vertex="1" connectable="0" parent="1">
          <mxGeometry x="50" y="160" width="130" height="360" as="geometry" />
        </mxCell>
        <mxCell id="v-N-G4oX44tgqsiODnRz-1" value="" style="rounded=0;whiteSpace=wrap;html=1;" vertex="1" parent="v-N-G4oX44tgqsiODnRz-10">
          <mxGeometry width="130" height="360" as="geometry" />
        </mxCell>
        <mxCell id="v-N-G4oX44tgqsiODnRz-3" value="" style="sketch=0;pointerEvents=1;shadow=0;dashed=0;html=1;strokeColor=#36393d;fillColor=#eeeeee;labelPosition=center;verticalLabelPosition=bottom;verticalAlign=top;outlineConnect=0;align=center;shape=mxgraph.office.concepts.folder;" vertex="1" parent="v-N-G4oX44tgqsiODnRz-10">
          <mxGeometry x="40" y="36" width="50" height="36" as="geometry" />
        </mxCell>
        <mxCell id="v-N-G4oX44tgqsiODnRz-4" value="" style="sketch=0;pointerEvents=1;shadow=0;dashed=0;html=1;strokeColor=none;fillColor=#505050;labelPosition=center;verticalLabelPosition=bottom;verticalAlign=top;outlineConnect=0;align=center;shape=mxgraph.office.users.csv_file;" vertex="1" parent="v-N-G4oX44tgqsiODnRz-10">
          <mxGeometry x="70" y="63" width="40" height="29.700000000000003" as="geometry" />
        </mxCell>
        <mxCell id="v-N-G4oX44tgqsiODnRz-5" value="" style="sketch=0;pointerEvents=1;shadow=0;dashed=0;html=1;strokeColor=#36393d;fillColor=#eeeeee;labelPosition=center;verticalLabelPosition=bottom;verticalAlign=top;outlineConnect=0;align=center;shape=mxgraph.office.concepts.folder;" vertex="1" parent="v-N-G4oX44tgqsiODnRz-10">
          <mxGeometry x="40" y="210" width="50" height="36" as="geometry" />
        </mxCell>
        <mxCell id="v-N-G4oX44tgqsiODnRz-6" value="" style="sketch=0;pointerEvents=1;shadow=0;dashed=0;html=1;strokeColor=none;fillColor=#505050;labelPosition=center;verticalLabelPosition=bottom;verticalAlign=top;outlineConnect=0;align=center;shape=mxgraph.office.users.csv_file;" vertex="1" parent="v-N-G4oX44tgqsiODnRz-10">
          <mxGeometry x="70" y="237" width="40" height="29.700000000000003" as="geometry" />
        </mxCell>
        <mxCell id="v-N-G4oX44tgqsiODnRz-7" value="&lt;b&gt;CRM&lt;/b&gt;" style="text;html=1;align=center;verticalAlign=middle;whiteSpace=wrap;rounded=0;" vertex="1" parent="v-N-G4oX44tgqsiODnRz-10">
          <mxGeometry x="35" y="92.70000000000002" width="60" height="27" as="geometry" />
        </mxCell>
        <mxCell id="v-N-G4oX44tgqsiODnRz-8" value="&lt;b&gt;ERP&lt;/b&gt;" style="text;html=1;align=center;verticalAlign=middle;whiteSpace=wrap;rounded=0;" vertex="1" parent="v-N-G4oX44tgqsiODnRz-10">
          <mxGeometry x="35" y="266.70000000000005" width="60" height="27" as="geometry" />
        </mxCell>
        <mxCell id="v-N-G4oX44tgqsiODnRz-11" value="" style="rounded=0;whiteSpace=wrap;html=1;fillColor=#663300;strokeColor=#36393d;" vertex="1" parent="1">
          <mxGeometry x="260" y="160" width="140" height="360" as="geometry" />
        </mxCell>
        <mxCell id="v-N-G4oX44tgqsiODnRz-12" value="" style="rounded=0;whiteSpace=wrap;html=1;fillColor=#808080;strokeColor=#36393d;" vertex="1" parent="1">
          <mxGeometry x="450" y="160" width="140" height="360" as="geometry" />
        </mxCell>
        <mxCell id="v-N-G4oX44tgqsiODnRz-13" value="" style="rounded=0;whiteSpace=wrap;html=1;fillColor=#B69846;" vertex="1" parent="1">
          <mxGeometry x="650" y="160" width="160" height="360" as="geometry" />
        </mxCell>
        <mxCell id="v-N-G4oX44tgqsiODnRz-38" style="edgeStyle=orthogonalEdgeStyle;rounded=0;orthogonalLoop=1;jettySize=auto;html=1;entryX=0;entryY=0.5;entryDx=0;entryDy=0;" edge="1" parent="1" source="v-N-G4oX44tgqsiODnRz-14" target="v-N-G4oX44tgqsiODnRz-20">
          <mxGeometry relative="1" as="geometry" />
        </mxCell>
        <mxCell id="v-N-G4oX44tgqsiODnRz-14" value="&lt;b&gt;crm_sales_details&lt;/b&gt;" style="rounded=0;whiteSpace=wrap;html=1;fillColor=none;" vertex="1" parent="1">
          <mxGeometry x="270" y="182.85" width="120" height="30" as="geometry" />
        </mxCell>
        <mxCell id="v-N-G4oX44tgqsiODnRz-39" style="edgeStyle=orthogonalEdgeStyle;rounded=0;orthogonalLoop=1;jettySize=auto;html=1;entryX=0;entryY=0.5;entryDx=0;entryDy=0;" edge="1" parent="1" source="v-N-G4oX44tgqsiODnRz-15" target="v-N-G4oX44tgqsiODnRz-21">
          <mxGeometry relative="1" as="geometry" />
        </mxCell>
        <mxCell id="v-N-G4oX44tgqsiODnRz-15" value="&lt;b&gt;crm_cust_info&lt;/b&gt;" style="rounded=0;whiteSpace=wrap;html=1;fillColor=none;" vertex="1" parent="1">
          <mxGeometry x="270" y="222.85" width="120" height="30" as="geometry" />
        </mxCell>
        <mxCell id="v-N-G4oX44tgqsiODnRz-40" style="edgeStyle=orthogonalEdgeStyle;rounded=0;orthogonalLoop=1;jettySize=auto;html=1;entryX=0;entryY=0.5;entryDx=0;entryDy=0;" edge="1" parent="1" source="v-N-G4oX44tgqsiODnRz-16" target="v-N-G4oX44tgqsiODnRz-22">
          <mxGeometry relative="1" as="geometry" />
        </mxCell>
        <mxCell id="v-N-G4oX44tgqsiODnRz-16" value="&lt;b&gt;crm_prd_info&lt;/b&gt;" style="rounded=0;whiteSpace=wrap;html=1;fillColor=none;" vertex="1" parent="1">
          <mxGeometry x="270" y="262.85" width="120" height="30" as="geometry" />
        </mxCell>
        <mxCell id="v-N-G4oX44tgqsiODnRz-35" style="edgeStyle=orthogonalEdgeStyle;rounded=0;orthogonalLoop=1;jettySize=auto;html=1;" edge="1" parent="1" source="v-N-G4oX44tgqsiODnRz-17" target="v-N-G4oX44tgqsiODnRz-23">
          <mxGeometry relative="1" as="geometry" />
        </mxCell>
        <mxCell id="v-N-G4oX44tgqsiODnRz-17" value="&lt;b&gt;erp_cust_az12&lt;/b&gt;" style="rounded=0;whiteSpace=wrap;html=1;fillColor=none;" vertex="1" parent="1">
          <mxGeometry x="270" y="356.85" width="120" height="30" as="geometry" />
        </mxCell>
        <mxCell id="v-N-G4oX44tgqsiODnRz-36" style="edgeStyle=orthogonalEdgeStyle;rounded=0;orthogonalLoop=1;jettySize=auto;html=1;entryX=0;entryY=0.5;entryDx=0;entryDy=0;" edge="1" parent="1" source="v-N-G4oX44tgqsiODnRz-18" target="v-N-G4oX44tgqsiODnRz-24">
          <mxGeometry relative="1" as="geometry" />
        </mxCell>
        <mxCell id="v-N-G4oX44tgqsiODnRz-18" value="&lt;b&gt;erp_loc_a101&lt;/b&gt;" style="rounded=0;whiteSpace=wrap;html=1;fillColor=none;" vertex="1" parent="1">
          <mxGeometry x="270" y="396.85" width="120" height="30" as="geometry" />
        </mxCell>
        <mxCell id="v-N-G4oX44tgqsiODnRz-37" style="edgeStyle=orthogonalEdgeStyle;rounded=0;orthogonalLoop=1;jettySize=auto;html=1;entryX=0;entryY=0.5;entryDx=0;entryDy=0;" edge="1" parent="1" source="v-N-G4oX44tgqsiODnRz-19" target="v-N-G4oX44tgqsiODnRz-25">
          <mxGeometry relative="1" as="geometry" />
        </mxCell>
        <mxCell id="v-N-G4oX44tgqsiODnRz-19" value="&lt;b&gt;erp_px_cat_g1v2&lt;/b&gt;" style="rounded=0;whiteSpace=wrap;html=1;fillColor=none;" vertex="1" parent="1">
          <mxGeometry x="270" y="436.85" width="120" height="30" as="geometry" />
        </mxCell>
        <mxCell id="v-N-G4oX44tgqsiODnRz-48" style="edgeStyle=orthogonalEdgeStyle;rounded=0;orthogonalLoop=1;jettySize=auto;html=1;entryX=0;entryY=0.5;entryDx=0;entryDy=0;jumpStyle=gap;" edge="1" parent="1" source="v-N-G4oX44tgqsiODnRz-20" target="v-N-G4oX44tgqsiODnRz-28">
          <mxGeometry relative="1" as="geometry" />
        </mxCell>
        <mxCell id="v-N-G4oX44tgqsiODnRz-20" value="&lt;b&gt;crm_sales_details&lt;/b&gt;" style="rounded=0;whiteSpace=wrap;html=1;fillColor=none;" vertex="1" parent="1">
          <mxGeometry x="460" y="182.85" width="120" height="30" as="geometry" />
        </mxCell>
        <mxCell id="v-N-G4oX44tgqsiODnRz-42" style="edgeStyle=orthogonalEdgeStyle;rounded=0;orthogonalLoop=1;jettySize=auto;html=1;entryX=0;entryY=0.5;entryDx=0;entryDy=0;jumpStyle=gap;" edge="1" parent="1" source="v-N-G4oX44tgqsiODnRz-21" target="v-N-G4oX44tgqsiODnRz-26">
          <mxGeometry relative="1" as="geometry" />
        </mxCell>
        <mxCell id="v-N-G4oX44tgqsiODnRz-21" value="&lt;b&gt;crm_cust_info&lt;/b&gt;" style="rounded=0;whiteSpace=wrap;html=1;fillColor=none;" vertex="1" parent="1">
          <mxGeometry x="460" y="222.85" width="120" height="30" as="geometry" />
        </mxCell>
        <mxCell id="v-N-G4oX44tgqsiODnRz-47" style="edgeStyle=orthogonalEdgeStyle;rounded=0;orthogonalLoop=1;jettySize=auto;html=1;entryX=0;entryY=0.5;entryDx=0;entryDy=0;jumpStyle=gap;" edge="1" parent="1" source="v-N-G4oX44tgqsiODnRz-22" target="v-N-G4oX44tgqsiODnRz-27">
          <mxGeometry relative="1" as="geometry" />
        </mxCell>
        <mxCell id="v-N-G4oX44tgqsiODnRz-22" value="&lt;b&gt;crm_prd_info&lt;/b&gt;" style="rounded=0;whiteSpace=wrap;html=1;fillColor=none;" vertex="1" parent="1">
          <mxGeometry x="460" y="262.85" width="120" height="30" as="geometry" />
        </mxCell>
        <mxCell id="v-N-G4oX44tgqsiODnRz-41" style="edgeStyle=orthogonalEdgeStyle;rounded=0;orthogonalLoop=1;jettySize=auto;html=1;entryX=0;entryY=0.5;entryDx=0;entryDy=0;jumpStyle=gap;" edge="1" parent="1" source="v-N-G4oX44tgqsiODnRz-23" target="v-N-G4oX44tgqsiODnRz-26">
          <mxGeometry relative="1" as="geometry" />
        </mxCell>
        <mxCell id="v-N-G4oX44tgqsiODnRz-23" value="&lt;b&gt;erp_cust_az12&lt;/b&gt;" style="rounded=0;whiteSpace=wrap;html=1;fillColor=none;" vertex="1" parent="1">
          <mxGeometry x="460" y="356.85" width="120" height="30" as="geometry" />
        </mxCell>
        <mxCell id="v-N-G4oX44tgqsiODnRz-46" style="edgeStyle=orthogonalEdgeStyle;rounded=0;orthogonalLoop=1;jettySize=auto;html=1;entryX=0;entryY=0.5;entryDx=0;entryDy=0;jumpStyle=gap;" edge="1" parent="1" source="v-N-G4oX44tgqsiODnRz-24" target="v-N-G4oX44tgqsiODnRz-26">
          <mxGeometry relative="1" as="geometry" />
        </mxCell>
        <mxCell id="v-N-G4oX44tgqsiODnRz-24" value="&lt;b&gt;erp_loc_a101&lt;/b&gt;" style="rounded=0;whiteSpace=wrap;html=1;fillColor=none;" vertex="1" parent="1">
          <mxGeometry x="460" y="396.85" width="120" height="30" as="geometry" />
        </mxCell>
        <mxCell id="v-N-G4oX44tgqsiODnRz-44" style="edgeStyle=orthogonalEdgeStyle;rounded=0;orthogonalLoop=1;jettySize=auto;html=1;entryX=0;entryY=0.5;entryDx=0;entryDy=0;jumpStyle=gap;" edge="1" parent="1" source="v-N-G4oX44tgqsiODnRz-25" target="v-N-G4oX44tgqsiODnRz-27">
          <mxGeometry relative="1" as="geometry" />
        </mxCell>
        <mxCell id="v-N-G4oX44tgqsiODnRz-45" style="edgeStyle=orthogonalEdgeStyle;rounded=0;orthogonalLoop=1;jettySize=auto;html=1;entryX=0;entryY=0.5;entryDx=0;entryDy=0;jumpStyle=gap;" edge="1" parent="1" source="v-N-G4oX44tgqsiODnRz-25" target="v-N-G4oX44tgqsiODnRz-27">
          <mxGeometry relative="1" as="geometry" />
        </mxCell>
        <mxCell id="v-N-G4oX44tgqsiODnRz-25" value="&lt;b&gt;erp_px_cat_g1v2&lt;/b&gt;" style="rounded=0;whiteSpace=wrap;html=1;fillColor=none;" vertex="1" parent="1">
          <mxGeometry x="460" y="436.85" width="120" height="30" as="geometry" />
        </mxCell>
        <mxCell id="v-N-G4oX44tgqsiODnRz-26" value="&lt;b&gt;dim_customers&lt;/b&gt;" style="rounded=0;whiteSpace=wrap;html=1;fillColor=none;" vertex="1" parent="1">
          <mxGeometry x="680" y="252.85000000000002" width="120" height="30" as="geometry" />
        </mxCell>
        <mxCell id="v-N-G4oX44tgqsiODnRz-27" value="&lt;b&gt;dim_products&lt;/b&gt;" style="rounded=0;whiteSpace=wrap;html=1;fillColor=none;" vertex="1" parent="1">
          <mxGeometry x="660" y="320" width="120" height="30" as="geometry" />
        </mxCell>
        <mxCell id="v-N-G4oX44tgqsiODnRz-28" value="&lt;b&gt;fact_sales&lt;/b&gt;" style="rounded=0;whiteSpace=wrap;html=1;fillColor=none;" vertex="1" parent="1">
          <mxGeometry x="660" y="182.85" width="120" height="30" as="geometry" />
        </mxCell>
        <mxCell id="v-N-G4oX44tgqsiODnRz-29" style="edgeStyle=orthogonalEdgeStyle;rounded=0;orthogonalLoop=1;jettySize=auto;html=1;entryX=0;entryY=0.5;entryDx=0;entryDy=0;" edge="1" parent="1" source="v-N-G4oX44tgqsiODnRz-4" target="v-N-G4oX44tgqsiODnRz-14">
          <mxGeometry relative="1" as="geometry" />
        </mxCell>
        <mxCell id="v-N-G4oX44tgqsiODnRz-30" style="edgeStyle=orthogonalEdgeStyle;rounded=0;orthogonalLoop=1;jettySize=auto;html=1;entryX=0;entryY=0.5;entryDx=0;entryDy=0;" edge="1" parent="1" source="v-N-G4oX44tgqsiODnRz-4" target="v-N-G4oX44tgqsiODnRz-15">
          <mxGeometry relative="1" as="geometry" />
        </mxCell>
        <mxCell id="v-N-G4oX44tgqsiODnRz-31" style="edgeStyle=orthogonalEdgeStyle;rounded=0;orthogonalLoop=1;jettySize=auto;html=1;entryX=0;entryY=0.5;entryDx=0;entryDy=0;" edge="1" parent="1" source="v-N-G4oX44tgqsiODnRz-4" target="v-N-G4oX44tgqsiODnRz-16">
          <mxGeometry relative="1" as="geometry" />
        </mxCell>
        <mxCell id="v-N-G4oX44tgqsiODnRz-32" style="edgeStyle=orthogonalEdgeStyle;rounded=0;orthogonalLoop=1;jettySize=auto;html=1;entryX=0;entryY=0.5;entryDx=0;entryDy=0;" edge="1" parent="1" source="v-N-G4oX44tgqsiODnRz-6" target="v-N-G4oX44tgqsiODnRz-17">
          <mxGeometry relative="1" as="geometry" />
        </mxCell>
        <mxCell id="v-N-G4oX44tgqsiODnRz-33" style="edgeStyle=orthogonalEdgeStyle;rounded=0;orthogonalLoop=1;jettySize=auto;html=1;entryX=0;entryY=0.5;entryDx=0;entryDy=0;" edge="1" parent="1" source="v-N-G4oX44tgqsiODnRz-6" target="v-N-G4oX44tgqsiODnRz-18">
          <mxGeometry relative="1" as="geometry" />
        </mxCell>
        <mxCell id="v-N-G4oX44tgqsiODnRz-34" style="edgeStyle=orthogonalEdgeStyle;rounded=0;orthogonalLoop=1;jettySize=auto;html=1;entryX=0;entryY=0.5;entryDx=0;entryDy=0;" edge="1" parent="1" source="v-N-G4oX44tgqsiODnRz-6" target="v-N-G4oX44tgqsiODnRz-19">
          <mxGeometry relative="1" as="geometry" />
        </mxCell>
        <mxCell id="v-N-G4oX44tgqsiODnRz-49" style="edgeStyle=orthogonalEdgeStyle;rounded=0;orthogonalLoop=1;jettySize=auto;html=1;exitX=0.5;exitY=1;exitDx=0;exitDy=0;" edge="1" parent="1" source="v-N-G4oX44tgqsiODnRz-28" target="v-N-G4oX44tgqsiODnRz-28">
          <mxGeometry relative="1" as="geometry" />
        </mxCell>
        <mxCell id="v-N-G4oX44tgqsiODnRz-51" value="&lt;b&gt;&lt;font style=&quot;font-size: 14px;&quot;&gt;Bronze&lt;/font&gt;&lt;/b&gt;" style="text;html=1;align=center;verticalAlign=middle;whiteSpace=wrap;rounded=0;" vertex="1" parent="1">
          <mxGeometry x="275" y="130" width="110" height="30" as="geometry" />
        </mxCell>
        <mxCell id="v-N-G4oX44tgqsiODnRz-52" value="&lt;b&gt;&lt;font style=&quot;font-size: 14px;&quot;&gt;Silver&lt;/font&gt;&lt;/b&gt;" style="text;html=1;align=center;verticalAlign=middle;whiteSpace=wrap;rounded=0;" vertex="1" parent="1">
          <mxGeometry x="465" y="130" width="110" height="30" as="geometry" />
        </mxCell>
        <mxCell id="v-N-G4oX44tgqsiODnRz-53" value="&lt;b&gt;&lt;font style=&quot;font-size: 14px;&quot;&gt;Gold&lt;/font&gt;&lt;/b&gt;" style="text;html=1;align=center;verticalAlign=middle;whiteSpace=wrap;rounded=0;" vertex="1" parent="1">
          <mxGeometry x="675" y="130" width="110" height="30" as="geometry" />
        </mxCell>
      </root>
    </mxGraphModel>
  </diagram>
</mxfile>
